####
#
#	OBJ File Generated by LightWave3D
#	LightWave3D OBJ Export v2.3
#
####
o isl_Coin_01_DEF.obj
mtllib isl_Coin_01_DEF.mtl
g default
v -0.117733 0.117733 -0.0375
v -0.1665 7.18981e-009 -0.0375
v -0.117733 -0.117733 -0.0375
v -6.22124e-009 -0.1665 -0.0375
v 0.117733 -0.117733 -0.0375
v 0.1665 -6.22124e-009 -0.0375
v 0.117733 0.117733 -0.0375
v 7.18981e-009 0.1665 -0.0375
v -0.117733 0.117733 -0.0222422
v -0.1665 7.18981e-009 -0.0222422
v -0.117733 -0.117733 -0.0222422
v -6.122e-009 -0.1665 -0.0222422
v 0.117733 -0.117733 -0.0222422
v 0.1665 -6.22124e-009 -0.0222422
v 0.117733 0.117733 -0.0222422
v 7.28905e-009 0.1665 -0.0222422
v 0.0294569 -0.0955481 -0.0222422
v 0.0294569 0.0955481 -0.0222422
v -0.0294569 -0.0955481 -0.0222422
v -0.0294569 0.0955481 -0.0222422
v -0.0294569 -0.0955481 -0.0109617
v 0.0294569 -0.0955481 -0.0109617
v 0.0294569 0.0955481 -0.0109617
v -0.0294569 0.0955481 -0.0109617
v -0.117733 0.117733 0.0375
v -0.1665 7.18981e-009 0.0375
v -0.117733 -0.117733 0.0375
v -6.22124e-009 -0.1665 0.0375
v 0.117733 -0.117733 0.0375
v 0.1665 -6.22124e-009 0.0375
v 0.117733 0.117733 0.0375
v 7.18981e-009 0.1665 0.0375
v -0.117733 0.117733 0.0222422
v -0.1665 7.18981e-009 0.0222422
v -0.117733 -0.117733 0.0222422
v -6.122e-009 -0.1665 0.0222422
v 0.117733 -0.117733 0.0222422
v 0.1665 -6.22124e-009 0.0222422
v 0.117733 0.117733 0.0222422
v 7.28905e-009 0.1665 0.0222422
v 0.0294569 -0.0955481 0.0222422
v 0.0294569 0.0955481 0.0222422
v -0.0294569 -0.0955481 0.0222422
v -0.0294569 0.0955481 0.0222422
v -0.0294569 -0.0955481 0.0109617
v 0.0294569 -0.0955481 0.0109617
v 0.0294569 0.0955481 0.0109617
v -0.0294569 0.0955481 0.0109617
v 2.05391e-016 0.225 -0.0375
v 0.159099 0.159099 -0.0375
v 0.225 1.11022e-016 -0.0375
v 0.159099 -0.159099 -0.0375
v 2.05391e-016 -0.225 -0.0375
v -0.159099 -0.159099 -0.0375
v -0.225 1.11022e-016 -0.0375
v -0.159099 0.159099 -0.0375
v 0.159099 0.159099 0.0375
v -0.159099 0.159099 0.0375
v 0 0.225 0.0375
v 0.225 0 0.0375
v -0.225 0 0.0375
v 0.159099 -0.159099 0.0375
v -0.159099 -0.159099 0.0375
v 0 -0.225 0.0375
vt 0.158 0.8056
vt 0.164 0.8156
vt 0.17 0.8356
vn 0.92388 -0.382683 -0
vn 0.92388 -0.382683 -0
vn 0.92388 -0.382683 -0
vn 0.92388 -0.382683 -0
vn 0.92388 0.382683 0
vn 0.92388 0.382683 0
vn 0.92388 0.382683 0
vn 0.92388 0.382683 0
vn 0.382683 0.92388 -2.48903e-009
vn 0.382683 0.92388 -2.48903e-009
vn 0.382683 0.92388 -2.48903e-009
vn 0.382683 0.92388 -2.48903e-009
vn -0.382683 0.92388 2.48903e-009
vn -0.382683 0.92388 2.48903e-009
vn -0.382683 0.92388 2.48903e-009
vn -0.382683 0.92388 2.48903e-009
vn -0.92388 0.382683 -0
vn -0.92388 0.382683 -0
vn -0.92388 0.382683 -0
vn -0.92388 0.382683 -0
vn -0.92388 -0.382683 -0
vn -0.92388 -0.382683 -0
vn -0.92388 -0.382683 -0
vn -0.92388 -0.382683 -0
vn -0.382683 -0.92388 -0
vn -0.382683 -0.92388 -0
vn -0.382683 -0.92388 -0
vn -0.382683 -0.92388 -0
vn 0.382683 -0.92388 -0
vn 0.382683 -0.92388 -0
vn 0.382683 -0.92388 -0
vn 0.382683 -0.92388 -0
vn 0 0 -1
vn 0 0 -1
vn 0 0 -1
vn 0 0 -1
vn 0 0 -1
vn 0 0 -1
vn 0 0 -1
vn 0 0 -1
vn 0 0 -1
vn 0 0 -1
vn -0 0 -1
vn -0 0 -1
vn -0 0 -1
vn -0 0 -1
vn 0 -0 -1
vn 0 -0 -1
vn 0 -0 -1
vn 0 -0 -1
vn 0 0 -1
vn 0 0 -1
vn 0 0 -1
vn 0 -0 -1
vn 0 -0 -1
vn 0 -0 -1
vn 0 0 -1
vn 0 0 -1
vn 0 0 -1
vn 0 -0 -1
vn 0 -0 -1
vn 0 -0 -1
vn 0 0 -1
vn 0 0 -1
vn 0 0 -1
vn 0 0 -1
vn 0 0 -1
vn 0 0 -1
vn 0 1 0
vn 0 1 0
vn 0 1 0
vn 0 1 0
vn -1 4.87358e-008 -0
vn -1 4.87358e-008 -0
vn -1 4.87358e-008 -0
vn -1 4.87358e-008 -0
vn 0 -1 -0
vn 0 -1 -0
vn 0 -1 -0
vn 0 -1 -0
vn 1 -4.87358e-008 -0
vn 1 -4.87358e-008 -0
vn 1 -4.87358e-008 -0
vn 1 -4.87358e-008 -0
vn 0.92388 -0.382683 -0
vn 0.92388 -0.382683 -0
vn 0.92388 -0.382683 -0
vn 0.92388 -0.382683 -0
vn 0.92388 0.382683 0
vn 0.92388 0.382683 0
vn 0.92388 0.382683 0
vn 0.92388 0.382683 0
vn 0.382683 0.92388 2.48903e-009
vn 0.382683 0.92388 2.48903e-009
vn 0.382683 0.92388 2.48903e-009
vn 0.382683 0.92388 2.48903e-009
vn -0.382683 0.92388 -0
vn -0.382683 0.92388 -0
vn -0.382683 0.92388 -0
vn -0.382683 0.92388 -0
vn -0.92388 0.382683 -0
vn -0.92388 0.382683 -0
vn -0.92388 0.382683 -0
vn -0.92388 0.382683 -0
vn -0.92388 -0.382683 0
vn -0.92388 -0.382683 0
vn -0.92388 -0.382683 0
vn -0.92388 -0.382683 0
vn -0.382683 -0.92388 -2.48903e-009
vn -0.382683 -0.92388 -2.48903e-009
vn -0.382683 -0.92388 -2.48903e-009
vn -0.382683 -0.92388 -2.48903e-009
vn 0.382683 -0.92388 -0
vn 0.382683 -0.92388 -0
vn 0.382683 -0.92388 -0
vn 0.382683 -0.92388 -0
vn 0 -0 1
vn 0 -0 1
vn 0 -0 1
vn 0 0 1
vn 0 0 1
vn 0 0 1
vn 0 -0 1
vn 0 -0 1
vn 0 -0 1
vn 0 -0 1
vn 0 -0 1
vn 0 -0 1
vn 0 -0 1
vn 0 -0 1
vn 0 0 1
vn 0 0 1
vn 0 0 1
vn 0 0 1
vn 0 -0 1
vn 0 -0 1
vn 0 -0 1
vn 0 0 1
vn 0 0 1
vn 0 0 1
vn 0 0 1
vn 0 0 1
vn 0 0 1
vn 0 0 1
vn 0 0 1
vn 0 0 1
vn 0 -0 1
vn 0 -0 1
vn 0 -0 1
vn 0 0 1
vn 0 0 1
vn 0 0 1
vn 0 1 0
vn 0 1 0
vn 0 1 0
vn 0 1 0
vn -1 4.87358e-008 -0
vn -1 4.87358e-008 -0
vn -1 4.87358e-008 -0
vn -1 4.87358e-008 -0
vn 0 -1 -0
vn 0 -1 -0
vn 0 -1 -0
vn 0 -1 -0
vn 1 -4.87358e-008 -0
vn 1 -4.87358e-008 -0
vn 1 -4.87358e-008 -0
vn 1 -4.87358e-008 -0
vn 0.382683 0.92388 0
vn 0.382683 0.92388 0
vn 0.382683 0.92388 0
vn 0.382683 0.92388 0
vn 0.92388 0.382683 5.66485e-016
vn 0.92388 0.382683 5.66485e-016
vn 0.92388 0.382683 5.66485e-016
vn 0.92388 0.382683 5.66485e-016
vn 0.92388 -0.382683 -0
vn 0.92388 -0.382683 -0
vn 0.92388 -0.382683 -0
vn 0.92388 -0.382683 -0
vn 0.382683 -0.92388 1.048e-015
vn 0.382683 -0.92388 1.048e-015
vn 0.382683 -0.92388 1.048e-015
vn 0.382683 -0.92388 1.048e-015
vn -0.382683 -0.92388 -1.048e-015
vn -0.382683 -0.92388 -1.048e-015
vn -0.382683 -0.92388 -1.048e-015
vn -0.382683 -0.92388 -1.048e-015
vn -0.92388 -0.382683 -0
vn -0.92388 -0.382683 -0
vn -0.92388 -0.382683 -0
vn -0.92388 -0.382683 -0
vn -0.92388 0.382683 5.66485e-016
vn -0.92388 0.382683 5.66485e-016
vn -0.92388 0.382683 5.66485e-016
vn -0.92388 0.382683 5.66485e-016
vn -0.382683 0.92388 -0
vn -0.382683 0.92388 -0
vn -0.382683 0.92388 -0
vn -0.382683 0.92388 -0
vn 0 -0 -1
vn 0 -0 -1
vn 0 -0 -1
vn 0 -0 -1
vn 0 0 -1
vn 0 0 -1
vn 0 0 -1
vn 0 0 -1
vn 0 0 -1
vn 0 0 -1
vn 0 0 -1
vn 0 0 -1
vn -0 0 -1
vn -0 0 -1
vn -0 0 -1
vn -0 0 -1
vn -0 0 -1
vn -0 0 -1
vn -0 0 -1
vn -0 0 -1
vn 0 -0 -1
vn 0 -0 -1
vn 0 -0 -1
vn 0 -0 -1
vn 0 -0 -1
vn 0 -0 -1
vn 0 -0 -1
vn 0 -0 -1
vn 0 -0 -1
vn 0 -0 -1
vn 0 -0 -1
vn 0 -0 -1
vn 0 0 1
vn 0 0 1
vn 0 0 1
vn 0 0 1
vn 0 0 1
vn 0 0 1
vn 0 0 1
vn 0 0 1
vn 0 0 1
vn 0 0 1
vn 0 0 1
vn 0 0 1
vn 0 -0 1
vn 0 -0 1
vn 0 -0 1
vn 0 -0 1
vn 0 -0 1
vn 0 -0 1
vn 0 -0 1
vn 0 -0 1
vn 0 0 1
vn 0 0 1
vn 0 0 1
vn 0 0 1
vn 0 0 1
vn 0 0 1
vn 0 0 1
vn 0 0 1
vn 0 0 1
vn 0 0 1
vn 0 0 1
vn 0 0 1
g isl_Coin_01
usemtl isl_Coin_01
s off
f 2/2/1 1/2/2 9/2/3 10/2/4
f 3/2/5 2/2/6 10/2/7 11/2/8
f 4/2/9 3/2/10 11/2/11 12/2/12
f 13/2/13 5/2/14 4/2/15 12/2/16
f 14/2/17 6/2/18 5/2/19 13/2/20
f 15/2/21 7/2/22 6/2/23 14/2/24
f 16/2/25 8/2/26 7/2/27 15/2/28
f 1/2/29 8/2/30 16/2/31 9/2/32
f 15/2/33 14/2/34 13/2/35
f 11/2/36 10/2/37 9/2/38
f 24/1/39 23/1/40 22/1/41 21/1/42
f 18/2/43 15/2/44 13/2/45 17/2/46
f 11/2/47 9/2/48 20/2/49 19/2/50
f 17/2/51 13/2/52 12/2/53
f 19/2/54 17/2/55 12/2/56
f 12/2/57 11/2/58 19/2/59
f 16/2/60 15/2/61 18/2/62
f 16/2/63 18/2/64 20/2/65
f 20/2/66 9/2/67 16/2/68
f 17/2/69 19/2/70 21/1/71 22/1/72
f 23/1/73 18/2/74 17/2/75 22/1/76
f 20/2/77 18/2/78 23/1/79 24/1/80
f 19/2/81 20/2/82 24/1/83 21/1/84
f 34/2/85 33/2/86 25/2/87 26/2/88
f 35/2/89 34/2/90 26/2/91 27/2/92
f 36/2/93 35/2/94 27/2/95 28/2/96
f 36/2/97 28/2/98 29/2/99 37/2/100
f 37/2/101 29/2/102 30/2/103 38/2/104
f 38/2/105 30/2/106 31/2/107 39/2/108
f 39/2/109 31/2/110 32/2/111 40/2/112
f 33/2/113 40/2/114 32/2/115 25/2/116
f 37/2/117 38/2/118 39/2/119
f 33/2/120 34/2/121 35/2/122
f 45/1/123 46/1/124 47/1/125 48/1/126
f 41/2/127 37/2/128 39/2/129 42/2/130
f 43/2/131 44/2/132 33/2/133 35/2/134
f 36/2/135 37/2/136 41/2/137
f 36/2/138 41/2/139 43/2/140
f 43/2/141 35/2/142 36/2/143
f 42/2/144 39/2/145 40/2/146
f 44/2/147 42/2/148 40/2/149
f 40/2/150 33/2/151 44/2/152
f 46/1/153 45/1/154 43/2/155 41/2/156
f 46/1/157 41/2/158 42/2/159 47/1/160
f 48/1/161 47/1/162 42/2/163 44/2/164
f 45/1/165 48/1/166 44/2/167 43/2/168
f 50/3/169 49/3/170 59/3/171 57/3/172
f 51/3/173 50/3/174 57/3/175 60/3/176
f 52/3/177 51/3/178 60/3/179 62/3/180
f 53/3/181 52/3/182 62/3/183 64/3/184
f 63/3/185 54/3/186 53/3/187 64/3/188
f 61/3/189 55/3/190 54/3/191 63/3/192
f 58/3/193 56/3/194 55/3/195 61/3/196
f 59/3/197 49/3/198 56/3/199 58/3/200
f 55/3/201 56/3/202 1/2/203 2/2/204
f 54/3/205 55/3/206 2/2/207 3/2/208
f 53/3/209 54/3/210 3/2/211 4/2/212
f 5/2/213 52/3/214 53/3/215 4/2/216
f 6/2/217 51/3/218 52/3/219 5/2/220
f 7/2/221 50/3/222 51/3/223 6/2/224
f 8/2/225 49/3/226 50/3/227 7/2/228
f 56/3/229 49/3/230 8/2/231 1/2/232
f 26/2/233 25/2/234 58/3/235 61/3/236
f 27/2/237 26/2/238 61/3/239 63/3/240
f 28/2/241 27/2/242 63/3/243 64/3/244
f 28/2/245 64/3/246 62/3/247 29/2/248
f 29/2/249 62/3/250 60/3/251 30/2/252
f 30/2/253 60/3/254 57/3/255 31/2/256
f 31/2/257 57/3/258 59/3/259 32/2/260
f 25/2/261 32/2/262 59/3/263 58/3/264
